<?xml version="1.0" standalone="no"?>
<!DOCTYPE svg PUBLIC "-//W3C//DTD SVG 20010904//EN"
 "http://www.w3.org/TR/2001/REC-SVG-20010904/DTD/svg10.dtd">
<svg version="1.0" xmlns="http://www.w3.org/2000/svg"
 width="1419.000000pt" height="1408.000000pt" viewBox="0 0 1419.000000 1408.000000"
 preserveAspectRatio="xMidYMid meet">

<g transform="translate(0.000000,1408.000000) scale(0.100000,-0.100000)"
fill="#000000" stroke="none">
<path d="M0 7040 l0 -7040 7095 0 7095 0 0 7040 0 7040 -7095 0 -7095 0 0
-7040z m10973 2318 l-1373 -1373 37 -45 c101 -126 321 -428 443 -610 689
-1027 1167 -2156 1425 -3365 125 -583 205 -1299 205 -1826 l0 -169 -1073 0
-1074 0 -6 248 c-34 1364 -476 2745 -1249 3901 -88 131 -211 305 -230 326 -5
6 -368 -350 -956 -938 l-947 -947 -760 760 -760 760 949 949 948 948 -134 95
c-1230 875 -2643 1352 -4131 1395 l-227 6 0 1075 0 1075 253 -6 c944 -25 1846
-181 2742 -474 1032 -338 2042 -873 2890 -1531 72 -56 132 -102 135 -102 3 0
622 617 1375 1370 l1370 1370 760 -760 760 -760 -1372 -1372z m-7243 -4913
c136 -21 230 -49 349 -106 293 -139 506 -366 625 -666 105 -264 112 -567 21
-840 -68 -203 -163 -352 -321 -503 -235 -225 -523 -340 -849 -340 -337 0 -637
124 -874 361 -416 416 -481 1066 -156 1555 264 396 742 610 1205 539z"/>
</g>
</svg>
