<?xml version="1.0" standalone="no"?>
<!DOCTYPE svg PUBLIC "-//W3C//DTD SVG 20010904//EN"
 "http://www.w3.org/TR/2001/REC-SVG-20010904/DTD/svg10.dtd">
<svg version="1.0" xmlns="http://www.w3.org/2000/svg"
 width="5556.000000pt" height="5556.000000pt" viewBox="0 0 5556.000000 5556.000000"
 preserveAspectRatio="xMidYMid meet">
<metadata>
Created by potrace 1.16, written by Peter Selinger 2001-2019
</metadata>
<g transform="translate(0.000000,5556.000000) scale(0.100000,-0.100000)"
fill="#000000" stroke="none">
<path d="M22340 41194 c-14 -2 -58 -9 -98 -15 -374 -55 -701 -369 -801 -770
-34 -134 -40 -259 -41 -761 l0 -468 -1291 0 c-1115 0 -1306 -2 -1398 -16 -810
-118 -1465 -704 -1667 -1491 -69 -271 -64 161 -64 -5474 l0 -5096 -52 -7
c-257 -34 -730 -162 -1061 -287 -862 -326 -1594 -829 -2249 -1544 -350 -382
-698 -909 -924 -1396 -716 -1543 -724 -3306 -21 -4824 636 -1375 1799 -2444
3246 -2982 445 -165 929 -274 1465 -330 233 -24 837 -24 1071 0 860 90 1624
332 2342 743 382 219 782 512 1056 774 l69 65 9851 5 9852 6 106 20 c844 167
1457 763 1635 1594 l27 125 9 1625 c12 2191 2 16619 -12 16720 -62 452 -242
833 -540 1144 -326 341 -735 550 -1199 611 -87 12 -340 15 -1388 15 l-1283 0
0 508 c0 553 -6 633 -56 787 -120 365 -386 612 -754 702 -53 13 -153 16 -533
20 -494 5 -601 0 -742 -38 -350 -91 -658 -391 -759 -740 -42 -146 -46 -213
-46 -740 l0 -499 -5897 2 -5898 3 -6 555 c-6 591 -5 579 -58 734 -29 83 -101
215 -158 288 -184 240 -446 391 -738 427 -82 10 -931 14 -995 5z m-937 -3521
c3 -1080 4 -1110 24 -1198 87 -377 328 -637 686 -739 144 -42 259 -48 777 -43
520 4 551 8 730 72 270 97 504 318 601 570 71 182 69 137 69 1353 l0 1092
5900 0 5900 0 0 -1067 c0 -1173 0 -1180 60 -1344 114 -315 382 -550 727 -638
143 -37 267 -43 766 -38 428 4 480 6 562 24 189 43 357 133 485 262 132 133
202 258 259 461 l26 95 3 1123 3 1122 1237 0 c732 0 1275 -4 1330 -10 128 -14
229 -35 350 -76 595 -197 1023 -729 1091 -1356 8 -65 11 -793 11 -2208 l0
-2110 -11927 -2 -11928 -3 -42 -22 c-136 -73 -148 -262 -22 -349 l42 -29
11939 -3 11938 -2 0 -6668 c0 -4054 -4 -6705 -10 -6763 -19 -198 -62 -351
-150 -536 -224 -471 -666 -807 -1175 -893 -120 -20 -128 -20 -9718 -23 -7116
-1 -9597 1 -9597 9 0 6 7 17 15 24 23 19 200 249 282 365 297 422 552 921 724
1417 130 372 222 759 273 1148 37 277 54 785 35 1065 -77 1167 -459 2216
-1139 3120 -327 436 -730 838 -1165 1164 -761 570 -1659 942 -2610 1080 -302
44 -438 53 -912 58 l-463 5 0 5073 c0 5034 0 5074 20 5190 51 297 191 582 394
805 266 290 636 479 1021 520 39 4 633 8 1322 9 l1252 1 4 -1107z m-3123
-10913 c1002 -70 1940 -408 2760 -994 47 -33 87 -63 90 -66 3 -3 39 -31 80
-62 41 -31 84 -65 95 -75 11 -10 61 -51 110 -92 128 -106 474 -455 591 -596
112 -136 202 -248 224 -281 8 -12 45 -64 81 -115 102 -143 217 -328 310 -499
457 -836 679 -1748 655 -2690 -16 -641 -140 -1243 -377 -1832 -104 -259 -284
-613 -401 -791 -21 -32 -38 -61 -38 -64 0 -11 -228 -332 -304 -428 -440 -555
-1005 -1036 -1611 -1372 -652 -361 -1328 -574 -2095 -660 -226 -25 -829 -25
-1065 0 -1055 113 -2026 508 -2822 1148 -219 176 -263 216 -455 409 -407 409
-703 811 -957 1302 -486 935 -675 1970 -555 3028 99 868 433 1745 933 2449 36
51 73 103 81 115 137 203 594 694 815 877 50 40 92 76 95 80 25 28 320 245
455 334 771 509 1650 809 2565 874 168 12 573 12 740 1z"/>
<path d="M21146 31128 c-56 -15 -120 -82 -134 -140 -15 -58 -17 -2720 -2
-2782 10 -47 33 -79 84 -120 l38 -31 1413 0 1413 0 43 30 c23 17 53 50 66 74
l23 44 0 1380 c0 1022 -3 1390 -12 1419 -14 48 -82 113 -134 127 -53 15 -2743
13 -2798 -1z m2534 -1533 l0 -1135 -1135 0 -1135 0 0 1135 0 1135 1135 0 1135
0 0 -1135z"/>
<path d="M26275 31135 c-5 -2 -22 -6 -38 -9 -15 -4 -45 -22 -67 -42 -76 -69
-71 44 -68 -1511 l3 -1391 30 -43 c17 -23 50 -53 74 -66 l44 -23 1390 0 1389
0 47 25 c50 28 86 72 101 126 6 21 10 543 10 1395 0 1524 5 1423 -72 1488 -21
19 -59 39 -83 45 -31 8 -441 11 -1397 10 -744 0 -1357 -2 -1363 -4z m2505
-1540 l0 -1135 -1135 0 -1135 0 0 1135 0 1135 1135 0 1135 0 0 -1135z"/>
<path d="M31352 31130 c-54 -13 -108 -55 -131 -102 l-21 -44 0 -1393 c0 -1348
1 -1393 19 -1429 24 -47 56 -77 103 -97 33 -13 195 -15 1421 -15 l1383 0 44
23 c61 31 98 81 110 148 7 37 10 511 8 1411 l-3 1355 -30 49 c-20 31 -47 58
-75 74 l-45 25 -1375 2 c-756 0 -1390 -2 -1408 -7z m2528 -1535 l0 -1135
-1140 0 -1140 0 0 1135 0 1135 1140 0 1140 0 0 -1135z"/>
<path d="M36436 31128 c-56 -15 -120 -82 -134 -140 -16 -64 -17 -2735 -1
-2792 15 -55 79 -121 132 -135 31 -9 399 -11 1429 -9 l1386 3 44 30 c25 18 52
49 66 75 l22 44 0 1383 c0 1516 4 1421 -58 1486 -63 67 57 62 -1467 64 -932 1
-1393 -2 -1419 -9z m2534 -1533 l0 -1135 -1135 0 -1135 0 0 1135 0 1135 1135
0 1135 0 0 -1135z"/>
<path d="M26275 26575 c-5 -2 -22 -6 -38 -9 -15 -4 -45 -22 -67 -42 -76 -69
-71 44 -68 -1511 l3 -1391 30 -43 c17 -23 50 -53 74 -66 l44 -23 1390 0 1389
0 47 25 c50 28 86 72 101 126 6 21 10 543 10 1395 0 1524 5 1423 -72 1488 -21
19 -59 39 -83 45 -31 8 -441 11 -1397 10 -744 0 -1357 -2 -1363 -4z m2505
-1540 l0 -1135 -1135 0 -1135 0 0 1135 0 1135 1135 0 1135 0 0 -1135z"/>
<path d="M31352 26570 c-54 -13 -108 -55 -131 -102 l-21 -44 0 -1393 c0 -1348
1 -1393 19 -1429 24 -47 56 -77 103 -97 33 -13 195 -15 1421 -15 l1383 0 44
23 c61 31 98 81 110 148 7 37 10 511 8 1411 l-3 1355 -30 49 c-20 31 -47 58
-75 74 l-45 25 -1375 2 c-756 0 -1390 -2 -1408 -7z m2528 -1535 l0 -1135
-1140 0 -1140 0 0 1135 0 1135 1140 0 1140 0 0 -1135z"/>
<path d="M36436 26568 c-56 -15 -120 -82 -134 -140 -16 -64 -17 -2735 -1
-2792 15 -55 79 -121 132 -135 31 -9 399 -11 1429 -9 l1386 3 44 30 c25 18 52
49 66 75 l22 44 0 1383 c0 1516 4 1421 -58 1486 -63 67 57 62 -1467 64 -932 1
-1393 -2 -1419 -9z m2534 -1533 l0 -1135 -1135 0 -1135 0 0 1135 0 1135 1135
0 1135 0 0 -1135z"/>
<path d="M26275 22015 c-5 -2 -22 -6 -38 -9 -15 -4 -45 -22 -67 -42 -76 -69
-71 44 -68 -1511 l3 -1391 30 -43 c17 -23 50 -53 74 -66 l44 -23 1390 0 1389
0 47 25 c50 28 86 72 101 126 16 54 13 2741 -2 2793 -18 58 -82 120 -140 134
-35 9 -399 12 -1400 11 -744 0 -1357 -2 -1363 -4z m2505 -1540 l0 -1135 -1135
0 -1135 0 0 1135 0 1135 1135 0 1135 0 0 -1135z"/>
<path d="M31352 22010 c-54 -13 -108 -55 -131 -102 l-21 -44 0 -1393 c0 -1348
1 -1393 19 -1429 24 -47 56 -77 103 -97 33 -13 195 -15 1421 -15 l1383 0 44
23 c61 31 98 81 110 148 7 37 10 511 8 1411 l-3 1355 -30 49 c-20 31 -47 58
-75 74 l-45 25 -1375 2 c-756 0 -1390 -2 -1408 -7z m2528 -1535 l0 -1135
-1140 0 -1140 0 0 1135 0 1135 1140 0 1140 0 0 -1135z"/>
<path d="M36438 22008 c-20 -5 -55 -25 -77 -44 -75 -65 -71 28 -71 -1493 0
-849 4 -1369 10 -1390 13 -47 47 -93 88 -122 l36 -24 1412 0 1412 0 44 30 c25
18 52 49 66 75 l22 44 0 1383 c0 1516 4 1421 -58 1486 -63 67 57 62 -1467 64
-879 1 -1393 -2 -1417 -9z m2532 -1533 l0 -1135 -1135 0 -1135 0 0 1135 0
1135 1135 0 1135 0 0 -1135z"/>
<path d="M15824 24282 c-22 -11 -69 -37 -105 -59 -35 -22 -165 -100 -289 -173
-124 -73 -268 -158 -320 -190 -52 -32 -207 -124 -345 -205 -137 -81 -383 -227
-545 -323 -162 -96 -356 -211 -430 -255 -198 -117 -230 -153 -230 -257 0 -63
17 -106 61 -148 62 -60 78 -62 636 -62 l503 0 0 -1916 c0 -1407 3 -1927 11
-1955 16 -52 64 -108 113 -130 39 -18 88 -19 981 -19 653 0 952 3 980 11 59
16 120 84 134 149 8 36 11 606 11 1955 l0 1905 465 0 c303 0 482 4 516 11 73
16 132 76 149 152 11 47 10 62 -5 110 -19 60 -43 87 -120 134 -27 17 -207 131
-400 253 -932 592 -802 510 -1183 750 -144 91 -301 190 -349 219 -73 47 -95
55 -142 58 -40 3 -68 -2 -97 -15z m379 -616 c601 -379 992 -627 1002 -637 5
-5 -82 -9 -233 -9 -219 0 -246 -2 -280 -19 -47 -24 -77 -56 -97 -103 -13 -33
-15 -248 -15 -1968 l0 -1930 -705 0 -705 0 0 1930 c0 2099 3 1968 -53 2028
-51 54 -63 57 -347 62 l-265 5 695 412 c382 227 699 413 703 413 5 0 140 -83
300 -184z"/>
<path d="M18974 24281 c-51 -23 -99 -81 -113 -137 -8 -30 -11 -609 -11 -1953
l0 -1911 -467 0 c-481 0 -533 -4 -584 -41 -79 -56 -106 -183 -57 -271 24 -45
66 -73 499 -337 85 -51 199 -122 254 -156 55 -34 195 -120 310 -190 116 -70
307 -188 425 -260 505 -311 667 -409 697 -422 38 -15 85 -17 130 -4 18 5 205
119 415 252 211 134 527 334 703 445 176 111 358 226 405 256 165 106 336 215
454 289 127 79 158 110 175 176 24 88 -22 193 -101 235 -43 23 -44 23 -535 26
l-493 3 0 1910 c0 1344 -3 1923 -11 1953 -14 56 -62 114 -113 137 -39 18 -88
19 -991 19 -903 0 -952 -1 -991 -19z m1696 -2321 c0 -2099 -3 -1968 53 -2028
50 -54 64 -57 332 -62 l250 -5 -290 -184 c-857 -544 -997 -632 -1010 -637 -8
-4 -54 19 -102 49 -49 30 -299 184 -558 342 -258 158 -522 320 -585 359 l-115
71 240 5 c257 5 272 8 322 62 56 60 53 -71 53 2028 l0 1930 705 0 705 0 0
-1930z"/>
<path d="M15845 35888 c-48 -17 -93 -56 -118 -101 l-22 -42 0 -3940 0 -3940
28 -47 c33 -57 70 -84 133 -99 90 -21 180 25 225 112 19 38 19 92 17 3987 l-3
3948 -27 41 c-48 73 -153 109 -233 81z"/>
<path d="M23559 16306 c-161 -57 -190 -264 -51 -361 l44 -30 8425 -3 c6120 -1
8437 1 8467 9 56 15 120 81 136 139 28 105 -39 222 -142 248 -72 18 -16829 16
-16879 -2z"/>
<path d="M16303 14773 c-5 -1 -25 -4 -46 -8 -47 -8 -104 -57 -128 -110 -50
-109 8 -243 119 -275 25 -8 283 -10 823 -8 l785 3 43 28 c47 31 91 109 91 162
0 81 -41 149 -114 188 l-41 22 -762 0 c-420 0 -766 -1 -770 -2z"/>
<path d="M18951 14769 c-25 -5 -61 -21 -80 -37 -117 -93 -102 -270 28 -339
l44 -23 5849 0 c4950 0 5854 2 5882 14 100 42 150 164 107 262 -27 60 -45 80
-96 108 l-40 21 -5825 1 c-3288 1 -5844 -2 -5869 -7z"/>
<path d="M35518 14771 c-96 -20 -162 -102 -162 -201 0 -60 17 -100 61 -144 59
-60 -153 -56 2886 -56 l2793 0 52 26 c138 69 145 265 12 345 l-45 28 -2780 5
c-1529 3 -2797 2 -2817 -3z"/>
</g>
</svg>
